<svg width="41" height="45" viewBox="0 0 41 45" fill="none" xmlns="http://www.w3.org/2000/svg">
<path fill="currentColor" d="M4.36719 8.82362V6.74985H2.29342V8.82362H4.36719ZM36.4505 8.82362H38.5243V6.74985H36.4505V8.82362ZM36.4505 15.5736V17.6474H38.5243V15.5736H36.4505ZM4.36719 15.5736H2.29342V17.6474H4.36719V15.5736ZM6.87721 6.57373C6.87721 7.71904 7.80567 8.6475 8.95099 8.6475C10.0963 8.6475 11.0248 7.71904 11.0248 6.57373H8.95099H6.87721ZM11.0248 2.07373C11.0248 0.928418 10.0963 -4.05312e-05 8.95099 -4.05312e-05C7.80567 -4.05312e-05 6.87721 0.928418 6.87721 2.07373H8.95099H11.0248ZM29.7939 6.57373C29.7939 7.71904 30.7223 8.6475 31.8677 8.6475C33.013 8.6475 33.9414 7.71904 33.9414 6.57373H31.8677H29.7939ZM33.9414 2.07373C33.9414 0.928418 33.013 -4.05312e-05 31.8677 -4.05312e-05C30.7223 -4.05312e-05 29.7939 0.928418 29.7939 2.07373H31.8677H33.9414ZM8.95097 20.25C7.80566 20.25 6.8772 21.1784 6.8772 22.3237C6.8772 23.4691 7.80566 24.3975 8.95097 24.3975V22.3237V20.25ZM31.8676 24.3975C33.0129 24.3975 33.9414 23.4691 33.9414 22.3237C33.9414 21.1784 33.0129 20.25 31.8676 20.25V22.3237V24.3975ZM8.95097 29.25C7.80566 29.25 6.8772 30.1785 6.8772 31.3238C6.8772 32.4691 7.80566 33.3976 8.95097 33.3976V31.3238V29.25ZM24.9926 33.3976C26.1379 33.3976 27.0664 32.4691 27.0664 31.3238C27.0664 30.1785 26.1379 29.25 24.9926 29.25V31.3238V33.3976ZM36.4492 6.57387V8.64764C36.5151 8.64764 36.5721 8.67257 36.6148 8.71457C36.6571 8.75605 36.6671 8.79453 36.6671 8.82387H38.7409H40.8147C40.8147 6.40534 38.8189 4.5001 36.4492 4.5001V6.57387ZM38.7409 8.82387H36.6671V40.3239H38.7409H40.8147V8.82387H38.7409ZM38.7409 40.3239H36.6671C36.6671 40.3532 36.6571 40.3917 36.6148 40.4332C36.5721 40.4752 36.5151 40.5001 36.4492 40.5001V42.5739V44.6476C38.8189 44.6476 40.8147 42.7424 40.8147 40.3239H38.7409ZM36.4492 42.5739V40.5001H4.36589V42.5739V44.6476H36.4492V42.5739ZM4.36589 42.5739V40.5001C4.29999 40.5001 4.24304 40.4752 4.20026 40.4332C4.15801 40.3917 4.14799 40.3532 4.14799 40.3239H2.07422H0.00044775C0.00044775 42.7424 1.99619 44.6476 4.36589 44.6476V42.5739ZM2.07422 40.3239H4.14799V8.82387H2.07422H0.00044775V40.3239H2.07422ZM2.07422 8.82387H4.14799C4.14799 8.79453 4.15801 8.75605 4.20026 8.71457C4.24304 8.67257 4.29999 8.64764 4.36589 8.64764V6.57387V4.5001C1.99619 4.5001 0.00044775 6.40535 0.00044775 8.82387H2.07422ZM4.36719 8.82362V10.8974H36.4505V8.82362V6.74985H4.36719V8.82362ZM36.4505 8.82362H34.3768V15.5736H36.4505H38.5243V8.82362H36.4505ZM36.4505 15.5736V13.4999H4.36719V15.5736V17.6474H36.4505V15.5736ZM4.36719 15.5736H6.44096V8.82362H4.36719H2.29342V15.5736H4.36719ZM8.95099 6.57373H11.0248V2.07373H8.95099H6.87721V6.57373H8.95099ZM31.8677 6.57373H33.9414V2.07373H31.8677H29.7939V6.57373H31.8677ZM8.95097 22.3237V24.3975H31.8676V22.3237V20.25H8.95097V22.3237ZM8.95097 31.3238V33.3976H24.9926V31.3238V29.25H8.95097V31.3238ZM4.36589 6.57387V8.64764H36.4492V6.57387V4.5001H4.36589V6.57387Z" />
</svg>
