<svg width="58" height="53" viewBox="0 0 58 53" xmlns="http://www.w3.org/2000/svg">
<path fill="currentColor" d="M27.307 26.2831C27.307 24.1725 26.5451 22.3705 25.0213 20.8772C23.4974 19.3838 21.6587 18.6371 19.505 18.6371C17.3513 18.6371 15.5126 19.3838 13.9887 20.8772C12.4649 22.3705 11.703 24.1725 11.703 26.2831C11.703 28.3937 12.4649 30.1957 13.9887 31.6891C15.5126 33.1824 17.3513 33.9291 19.505 33.9291C21.6587 33.9291 23.4974 33.1824 25.0213 31.6891C26.5451 30.1957 27.307 28.3937 27.307 26.2831ZM50.713 41.5751C50.713 40.5397 50.327 39.6437 49.5549 38.8871C48.7828 38.1304 47.8685 37.7521 46.812 37.7521C45.7555 37.7521 44.8412 38.1304 44.0691 38.8871C43.297 39.6437 42.911 40.5397 42.911 41.5751C42.911 42.6304 43.292 43.5314 44.0539 44.2781C44.8158 45.0248 45.7352 45.3981 46.812 45.3981C47.8888 45.3981 48.8082 45.0248 49.5701 44.2781C50.332 43.5314 50.713 42.6304 50.713 41.5751ZM50.713 10.9911C50.713 9.95573 50.327 9.05971 49.5549 8.30308C48.7828 7.54644 47.8685 7.16813 46.812 7.16813C45.7555 7.16813 44.8412 7.54644 44.0691 8.30308C43.297 9.05971 42.911 9.95573 42.911 10.9911C42.911 12.0464 43.292 12.9474 44.0539 13.6941C44.8158 14.4408 45.7352 14.8141 46.812 14.8141C47.8888 14.8141 48.8082 14.4408 49.5701 13.6941C50.332 12.9474 50.713 12.0464 50.713 10.9911ZM39.01 23.5652V29.0906C39.01 29.2898 38.9389 29.4839 38.7967 29.6731C38.6544 29.8622 38.4919 29.9667 38.309 29.9867L33.5852 30.7035C33.3617 31.4004 33.0366 32.157 32.6099 32.9734C33.3007 33.9291 34.215 35.074 35.3528 36.4081C35.495 36.6271 35.5661 36.8262 35.5661 37.0054C35.5661 37.2444 35.495 37.4335 35.3528 37.5729C34.8855 38.1703 34.0474 39.0613 32.8385 40.246C31.6296 41.4308 30.8321 42.0231 30.4461 42.0231C30.2226 42.0231 30.0093 41.9534 29.8061 41.8141L26.3013 39.126C25.5495 39.5043 24.7673 39.813 23.9546 40.0519C23.7311 42.2023 23.4974 43.7455 23.2536 44.6813C23.1114 45.1592 22.8066 45.3981 22.3393 45.3981H16.6707C16.4472 45.3981 16.244 45.3235 16.0611 45.1741C15.8783 45.0248 15.7767 44.8506 15.7564 44.6514L15.0554 40.0818C14.3646 39.8827 13.6027 39.574 12.7697 39.1559L9.17344 41.8141C9.03122 41.9534 8.82804 42.0231 8.56391 42.0231C8.34042 42.0231 8.12708 41.9435 7.92391 41.7842C4.99816 39.136 3.53528 37.5431 3.53528 37.0054C3.53528 36.8262 3.60639 36.6371 3.74862 36.438C3.95179 36.1592 4.36831 35.6316 4.99816 34.855C5.628 34.0785 6.10547 33.4712 6.43055 33.0331C5.96325 32.157 5.60769 31.3406 5.36387 30.584L0.731437 29.8672C0.52826 29.8473 0.35556 29.7527 0.213336 29.5835C0.071112 29.4142 0 29.2201 0 29.001V23.4756C0 23.2765 0.071112 23.0824 0.213336 22.8932C0.35556 22.704 0.518102 22.5995 0.700961 22.5796L5.42483 21.8628C5.64832 21.1659 5.97341 20.4092 6.40008 19.5929C5.70928 18.6371 4.79498 17.4922 3.65719 16.1581C3.51496 15.9391 3.44385 15.74 3.44385 15.5608C3.44385 15.3219 3.51496 15.1228 3.65719 14.9635C4.10418 14.3661 4.9372 13.4801 6.15626 12.3053C7.37533 11.1305 8.17788 10.5431 8.56391 10.5431C8.78741 10.5431 9.00074 10.6128 9.20392 10.7522L12.7087 13.4402C13.3995 13.0818 14.1818 12.7632 15.0554 12.4845C15.2789 10.334 15.5126 8.80087 15.7564 7.88494C15.8986 7.40706 16.2034 7.16813 16.6707 7.16813H22.3393C22.5628 7.16813 22.766 7.24279 22.9488 7.39213C23.1317 7.54147 23.2333 7.71569 23.2536 7.9148L23.9546 12.4845C24.6454 12.6836 25.4073 12.9922 26.2403 13.4104L29.8366 10.7522C29.9991 10.6128 30.2023 10.5431 30.4461 10.5431C30.6696 10.5431 30.8829 10.6228 31.0861 10.7821C34.0118 13.4303 35.4747 15.0232 35.4747 15.5608C35.4747 15.7201 35.4036 15.9093 35.2614 16.1283C35.0176 16.4469 34.5909 16.9845 33.9814 17.7411C33.3718 18.4977 32.9147 19.0951 32.6099 19.5331C33.0772 20.4889 33.4226 21.3053 33.6461 21.9823L38.2786 22.6692C38.4817 22.709 38.6544 22.8136 38.7967 22.9828C38.9389 23.1521 39.01 23.3462 39.01 23.5652ZM58.515 39.4844V43.6658C58.515 43.9844 57.0013 44.293 53.974 44.5917C53.7302 45.1293 53.4254 45.647 53.0597 46.1448C54.0959 48.3948 54.614 49.7687 54.614 50.2665C54.614 50.3461 54.5734 50.4158 54.4921 50.4755C52.0133 51.8893 50.7536 52.5961 50.713 52.5961C50.5505 52.5961 50.0831 52.1282 49.3111 51.1924C48.539 50.2565 48.0107 49.5795 47.7263 49.1614C47.3199 49.2012 47.0152 49.2211 46.812 49.2211C46.6088 49.2211 46.3041 49.2012 45.8977 49.1614C45.6133 49.5795 45.085 50.2565 44.3129 51.1924C43.5408 52.1282 43.0735 52.5961 42.911 52.5961C42.8704 52.5961 41.6107 51.8893 39.1319 50.4755C39.0506 50.4158 39.01 50.3461 39.01 50.2665C39.01 49.7687 39.5281 48.3948 40.5643 46.1448C40.1986 45.647 39.8938 45.1293 39.65 44.5917C36.6227 44.293 35.109 43.9844 35.109 43.6658V39.4844C35.109 39.1658 36.6227 38.8572 39.65 38.5585C39.9141 37.9811 40.2189 37.4634 40.5643 37.0054C39.5281 34.7555 39.01 33.3816 39.01 32.8838C39.01 32.8041 39.0506 32.7344 39.1319 32.6747C39.2132 32.6349 39.5687 32.4358 40.1986 32.0774C40.8284 31.719 41.4278 31.3805 41.9967 31.0619C42.5656 30.7433 42.8704 30.584 42.911 30.584C43.0735 30.584 43.5408 31.0469 44.3129 31.9728C45.085 32.8987 45.6133 33.5707 45.8977 33.9889C46.3041 33.949 46.6088 33.9291 46.812 33.9291C47.0152 33.9291 47.3199 33.949 47.7263 33.9889C48.7625 32.5751 49.6971 31.4601 50.5301 30.6437L50.713 30.584C50.7943 30.584 52.054 31.2809 54.4921 32.6747C54.5734 32.7344 54.614 32.8041 54.614 32.8838C54.614 33.3816 54.0959 34.7555 53.0597 37.0054C53.4051 37.4634 53.7099 37.9811 53.974 38.5585C57.0013 38.8572 58.515 39.1658 58.515 39.4844ZM58.515 8.90042V13.0818C58.515 13.4004 57.0013 13.709 53.974 14.0077C53.7302 14.5453 53.4254 15.063 53.0597 15.5608C54.0959 17.8108 54.614 19.1847 54.614 19.6825C54.614 19.7621 54.5734 19.8318 54.4921 19.8915C52.0133 21.3053 50.7536 22.0121 50.713 22.0121C50.5505 22.0121 50.0831 21.5442 49.3111 20.6084C48.539 19.6725 48.0107 18.9955 47.7263 18.5774C47.3199 18.6172 47.0152 18.6371 46.812 18.6371C46.6088 18.6371 46.3041 18.6172 45.8977 18.5774C45.6133 18.9955 45.085 19.6725 44.3129 20.6084C43.5408 21.5442 43.0735 22.0121 42.911 22.0121C42.8704 22.0121 41.6107 21.3053 39.1319 19.8915C39.0506 19.8318 39.01 19.7621 39.01 19.6825C39.01 19.1847 39.5281 17.8108 40.5643 15.5608C40.1986 15.063 39.8938 14.5453 39.65 14.0077C36.6227 13.709 35.109 13.4004 35.109 13.0818V8.90042C35.109 8.58184 36.6227 8.27321 39.65 7.97454C39.9141 7.39711 40.2189 6.87941 40.5643 6.42145C39.5281 4.17145 39.01 2.79756 39.01 2.29977C39.01 2.22013 39.0506 2.15044 39.1319 2.0907C39.2132 2.05088 39.5687 1.85177 40.1986 1.49336C40.8284 1.13495 41.4278 0.796458 41.9967 0.477875C42.5656 0.159292 42.8704 0 42.911 0C43.0735 0 43.5408 0.462941 44.3129 1.38882C45.085 2.31471 45.6133 2.98672 45.8977 3.40486C46.3041 3.36504 46.6088 3.34513 46.812 3.34513C47.0152 3.34513 47.3199 3.36504 47.7263 3.40486C48.7625 1.99115 49.6971 0.876104 50.5301 0.0597344L50.713 0C50.7943 0 52.054 0.696901 54.4921 2.0907C54.5734 2.15044 54.614 2.22013 54.614 2.29977C54.614 2.79756 54.0959 4.17145 53.0597 6.42145C53.4051 6.87941 53.7099 7.39711 53.974 7.97454C57.0013 8.27321 58.515 8.58184 58.515 8.90042Z" />
</svg>
