<svg 
  xmlns="http://www.w3.org/2000/svg" 
  width="24" 
  height="24" 
  viewBox="0 0 69 69" 
  fill="none"
>
  <path 
    fill="currentColor" 
    d="M54.48 33c0-3.657-1.315-6.188-2.441-8.159l-.345-.56c-1.367-2.2-2.562-4.132-2.562-6.383 0-2.717 2.061-5.253 4.968-5.253.086 0 .17.004.25.13l.134.012c-5.45-5.005-12.583-7.779-19.983-7.771-4.905 0-9.732 1.219-14.049 3.547-4.316 2.328-7.986 5.693-10.68 9.792.69.022 1.35.039 1.906.039 3.092 0 7.883-.375 7.883-.375 1.596-.095 1.786 2.247.19 2.437 0 0-1.6.19-3.385.28l10.781 32.06 6.469-19.432-4.614-12.632c-1.592-.095-3.101-.28-3.101-.28-1.596-.095-1.406-2.536.185-2.441 0 0 4.89.375 7.797.375 3.096 0 7.892-.375 7.892-.375 1.595-.095 1.78 2.25.185 2.44 0 0-1.604.185-3.385.28l10.695 31.813 2.95-9.863.232-.746c1.165-3.709 2.023-6.447 2.023-8.823l.004.004ZM4.903 34.5c-.002 5.558 1.562 11.005 4.512 15.715 2.95 4.71 7.167 8.495 12.169 10.92L7.46 22.45c-1.695 3.79-2.567 7.897-2.557 12.05ZM26.138 62.89l8.884-25.802 9.095 24.926a4.2 4.2 0 0 1 .211.406c-5.863 2.066-12.228 2.23-18.19.47ZM60.466 20.3c.132.943.2 1.958.202 3.045 0 3.001-.56 6.378-2.25 10.6l-9.04 26.134c6.67-3.875 11.563-10.203 13.635-17.633 2.072-7.43 1.16-15.377-2.543-22.146h-.004Z" 
  />
  <path 
    fill-rule="evenodd" 
    clip-rule="evenodd" 
    d="M0 34.5C0 15.478 15.478 0 34.5 0S69 15.478 69 34.5 53.518 69 34.5 69 0 53.522 0 34.5Zm1.583 0c0 18.151 14.766 32.917 32.917 32.917 18.151 0 32.913-14.766 32.913-32.917 0-18.156-14.766-32.917-32.913-32.917S1.583 16.344 1.583 34.5Z" 
    fill="currentColor" 
  />
</svg>
