<svg 
  xmlns="http://www.w3.org/2000/svg" 
  width="24" 
  height="24" 
  viewBox="0 0 18 18" 
  fill="none"
>
  <path 
    fill="currentColor" 
    d="M16.24 1.76a4.31 4.31 0 0 1 0 6.1L14.71 9.38c-1.12 1.12-2.7 1.47-4.14 1.09l2.62-2.61.76-.77.76-.76a2.152 2.152 0 0 0 0-3.04 2.155 2.155 0 0 0-3.04 0l-.77.76-3.38 3.38c-.37-1.44-.02-3.02 1.1-4.14l1.52-1.53a4.312 4.312 0 0 1 6.1 0ZM7.09 12.43l5.34-5.34a.61.61 0 0 0 0-.86.604.604 0 0 0-.86 0L5.57 10.91c-.42.42-.42 1.1 0 1.52.44.43 1.13.39 1.52 0Zm-.76 2.29 4.14-4.15c.38 1.44.03 3.02-1.09 4.14l-1.52 1.53a4.312 4.312 0 0 1-6.1 0 4.312 4.312 0 0 1 0-6.1l1.53-1.52c1.12-1.12 2.7-1.47 4.14-1.1l-4.14 4.15c-.85.84-.85 2.2 0 3.05.84.84 2.2.84 3.04 0Z"
  />
</svg>