<svg width="" height="" viewBox="0 0 115 31" fill="none" xmlns="http://www.w3.org/2000/svg">
<path d="M0 30.7803V0H13.0806C16.37 0 18.7565 0.279948 20.2402 0.839844C21.738 1.38574 22.9347 2.36556 23.8306 3.7793C24.7264 5.19303 25.1743 6.80973 25.1743 8.62939C25.1743 10.939 24.4954 12.8496 23.1377 14.3613C21.7799 15.859 19.7503 16.8039 17.0488 17.1958C18.3926 17.9797 19.4984 18.8405 20.3662 19.7783C21.248 20.7161 22.4308 22.3818 23.9146 24.7754L27.6729 30.7803H20.2402L15.7471 24.0825C14.1514 21.689 13.0596 20.1842 12.4717 19.5684C11.8838 18.9385 11.2609 18.5116 10.603 18.2876C9.94515 18.0496 8.90234 17.9307 7.47461 17.9307H6.21484V30.7803H0ZM6.21484 13.0176H10.813C13.7944 13.0176 15.6561 12.8916 16.3979 12.6396C17.1398 12.3877 17.7207 11.9538 18.1406 11.3379C18.5605 10.722 18.7705 9.95215 18.7705 9.02832C18.7705 7.99251 18.4906 7.15967 17.9307 6.52979C17.3848 5.8859 16.6079 5.47998 15.6001 5.31201C15.0962 5.24202 13.5845 5.20703 11.0649 5.20703H6.21484V13.0176Z" fill="#07077C"/>
<path d="M58.8101 30.7803H52.0493L49.3618 23.7886H37.0581L34.5176 30.7803H27.9248L39.9136 0H46.4854L58.8101 30.7803ZM47.3672 18.6025L43.126 7.18066L38.9688 18.6025H47.3672Z" fill="#07077C"/>
<path d="M62.1274 30.7803V0H84.9502V5.20703H68.3423V12.0308H83.7954V17.2168H68.3423V25.5942H85.5381V30.7803H62.1274Z" fill="url(#paint0_radial_2096_4)"/>
<path d="M90.8081 30.7803V0H100.781C104.561 0 107.024 0.153971 108.172 0.461914C109.936 0.923828 111.412 1.93164 112.602 3.48535C113.792 5.02507 114.387 7.01969 114.387 9.46924C114.387 11.3589 114.044 12.9476 113.358 14.2354C112.672 15.5231 111.797 16.5379 110.733 17.2798C109.684 18.0076 108.613 18.4906 107.521 18.7285C106.037 19.0225 103.889 19.1694 101.075 19.1694H97.0229V30.7803H90.8081ZM97.0229 5.20703V13.9414H100.424C102.874 13.9414 104.512 13.7804 105.337 13.4585C106.163 13.1366 106.807 12.6326 107.269 11.9468C107.745 11.2609 107.983 10.4631 107.983 9.55322C107.983 8.43343 107.654 7.5096 106.996 6.78174C106.338 6.05387 105.505 5.59896 104.498 5.41699C103.756 5.27702 102.265 5.20703 100.025 5.20703H97.0229Z" fill="url(#paint1_radial_2096_4)"/>
<defs>
<radialGradient id="paint0_radial_2096_4" cx="0" cy="0" r="1" gradientUnits="userSpaceOnUse" gradientTransform="translate(57.1934 15.3901) scale(57.1934 15.3901)">
<stop offset="0.331731" stop-color="#C13500"/>
<stop offset="0.519231" stop-color="#D83B00"/>
</radialGradient>
<radialGradient id="paint1_radial_2096_4" cx="0" cy="0" r="1" gradientUnits="userSpaceOnUse" gradientTransform="translate(57.1934 15.3901) scale(57.1934 15.3901)">
<stop offset="0.331731" stop-color="#C13500"/>
<stop offset="0.519231" stop-color="#D83B00"/>
</radialGradient>
</defs>
</svg>
