<svg 
  xmlns="http://www.w3.org/2000/svg" 
  width="24" 
  height="14.5" 
  viewBox="0 0 91 55" 
  fill="none"
>
  <path 
    fill="currentColor" 
    d="M45.5 0C33.366 0 25.786 6.109 22.75 18.332c4.549-6.11 9.859-8.401 15.924-6.873 3.463.87 5.937 3.399 8.678 6.202 4.46 4.56 9.623 9.839 20.9 9.839 12.132 0 19.714-6.11 22.748-18.336-4.55 6.113-9.858 8.405-15.924 6.877-3.463-.87-5.935-3.399-8.679-6.202C61.94 5.279 56.778 0 45.5 0ZM22.75 27.5c-12.133 0-19.714 6.11-22.75 18.336 4.55-6.113 9.857-8.405 15.924-6.877 3.463.87 5.937 3.399 8.678 6.202 4.46 4.56 9.623 9.839 20.898 9.839 12.133 0 19.715-6.109 22.75-18.332-4.55 6.11-9.858 8.401-15.924 6.873-3.463-.87-5.935-3.399-8.679-6.202C39.19 32.779 34.028 27.5 22.75 27.5Z"
  />
</svg>