<svg width="47" height="46" viewBox="0 0 47 46" xmlns="http://www.w3.org/2000/svg">
<path fill="currentColor" d="M25.1713 11.8745V21.2858L32.851 25.9675C33.1615 26.149 33.4334 26.3916 33.6506 26.6811C33.8679 26.9706 34.0262 27.3012 34.1163 27.6535C34.2065 28.0059 34.2266 28.3729 34.1756 28.7333C34.1245 29.0936 34.0034 29.44 33.8191 29.7522C33.6349 30.0645 33.3913 30.3363 33.1025 30.5518C32.8137 30.7672 32.4856 30.9221 32.1373 31.0073C31.7889 31.0925 31.4274 31.1063 31.0738 31.048C30.7201 30.9896 30.3815 30.8603 30.0776 30.6674L21.0876 25.1864C20.688 24.9431 20.3574 24.5987 20.1277 24.1869C19.8981 23.775 19.7774 23.3098 19.7773 22.8365V11.8745C19.7773 11.1476 20.0614 10.4506 20.5672 9.93664C21.073 9.4227 21.759 9.13397 22.4743 9.13397C23.1896 9.13397 23.8756 9.4227 24.3813 9.93664C24.8871 10.4506 25.1713 11.1476 25.1713 11.8745ZM44.0503 5.47997C43.335 5.47997 42.649 5.7687 42.1432 6.28264C41.6374 6.79659 41.3533 7.49364 41.3533 8.22047V9.90359C40.4071 8.83708 39.4249 7.77742 38.3664 6.68807C35.2426 3.51428 31.2677 1.34625 26.9382 0.454857C22.6088 -0.436532 18.1169 -0.011746 14.0237 1.67614C9.93046 3.36402 6.41751 6.24016 3.92377 9.94517C1.43004 13.6502 0.0660824 18.0198 0.00234084 22.508C-0.0614007 26.9962 1.1779 31.4039 3.56538 35.1805C5.95287 38.9571 9.38267 41.9351 13.4262 43.7423C17.4698 45.5495 21.9478 46.1058 26.3008 45.3417C30.6537 44.5776 34.6885 42.5271 37.9011 39.4462C38.4215 38.9471 38.7254 38.2584 38.7461 37.5316C38.7667 36.8048 38.5024 36.0994 38.0112 35.5707C37.5201 35.0419 36.8423 34.733 36.127 34.7121C35.4118 34.6911 34.7176 34.9597 34.1972 35.4588C31.7561 37.7997 28.6902 39.358 25.3827 39.9388C22.0751 40.5197 18.6724 40.0975 15.5996 38.7248C12.5268 37.3522 9.92008 35.09 8.10509 32.2209C6.2901 29.3518 5.34727 26.0028 5.39435 22.5924C5.44144 19.182 6.47636 15.8613 8.36984 13.045C10.2633 10.2287 12.9314 8.04176 16.0409 6.75727C19.1504 5.47277 22.5634 5.14768 25.8537 5.8226C29.1439 6.49752 32.1655 8.14254 34.5411 10.5522C35.8716 11.9201 37.083 13.2447 38.2585 14.615H35.0603C34.345 14.615 33.659 14.9037 33.1532 15.4176C32.6474 15.9316 32.3633 16.6286 32.3633 17.3555C32.3633 18.0823 32.6474 18.7794 33.1532 19.2933C33.659 19.8072 34.345 20.096 35.0603 20.096H44.0503C44.7656 20.096 45.4516 19.8072 45.9573 19.2933C46.4631 18.7794 46.7473 18.0823 46.7473 17.3555V8.22047C46.7473 7.49364 46.4631 6.79659 45.9573 6.28264C45.4516 5.7687 44.7656 5.47997 44.0503 5.47997Z" />
</svg>
