<svg width="42" height="50" viewBox="0 0 42 50"  xmlns="http://www.w3.org/2000/svg">
<path fill="currentColor" d="M0.243517 0V2.19029C0.117558 18.985 -2.07698 13.3308 9.56931 25C-2.28902 36.6856 0.243517 31.2217 0.243517 47.8097V50H41.1401V47.8097C41.2647 31.0192 43.4726 36.6412 31.8315 25C43.6824 13.3484 41.1401 18.7675 41.1401 2.19029V0H0.243517ZM4.62406 4.38054H36.7595C37.3578 16.7318 35.993 14.6097 27.16 23.4428L25.6199 25L27.16 26.5572C37.0248 36.3113 36.7595 32.9435 36.7595 45.6194H4.62406C4.0241 33.2689 5.39893 35.3805 14.2236 26.54L15.7637 25L14.2236 23.46C4.36535 13.696 4.62406 17.0576 4.62406 4.38054ZM9.07306 13.3812C12.8557 16.6144 18.16 18.0473 19.2716 24.4524H21.3934C21.3045 18.6932 27.7861 16.587 32.2935 13.3812C23.3593 14.3442 19.7154 14.8608 9.07306 13.3812ZM20.6063 31.6735C14.772 31.6367 8.97768 34.6279 9.09018 40.7597H32.3106C32.3148 34.775 26.4406 31.7102 20.6063 31.6735Z" />
</svg>
