<svg 
  xmlns="http://www.w3.org/2000/svg" 
  width="24" 
  height="24" 
  viewBox="0 0 69 69" 
  fill="none"
>
  <path 
    fill="currentColor" 
    fill-rule="evenodd" 
    clip-rule="evenodd" 
    d="M34.5 11.5a23 23 0 0 0-19.823 34.673l1.636 2.064-2.004 6.782 6.67-1.863 1.09.7a23 23 0 1 0 12.431-42.356ZM5.75 34.5c0-15.879 12.871-28.75 28.75-28.75S63.25 18.621 63.25 34.5 50.379 63.25 34.5 63.25a28.7 28.7 0 0 1-14.421-3.873L5.854 63.35l4.1-13.883A28.73 28.73 0 0 1 5.75 34.5Z" 
  />
  <path 
    fill="currentColor" 
    d="M48.113 38.789c-.109-.052-4.304-2.116-5.049-2.386a1.7 1.7 0 0 0-1.4.195 2.5 2.5 0 0 0-.586.855c-.42.624-1.688 2.104-2.079 2.547-.052.057-.12.13-.163.13s-.65-.267-.845-.354c-4.497-2.001-7.909-6.696-8.378-7.49 0 0-.003-.05-.003-.05.015-.06.167-.213.245-.29.23-.228.477-.524.716-.815l.336-.402c.348-.403.503-.72.682-1.079l.095-.19a1.6 1.6 0 0 0-.059-1.84c-.097-.2-1.868-4.471-2.055-4.92-.454-1.083-1.052-1.587-1.883-1.587-.078 0 0 0-.322.014-.394.015-2.539.3-3.487.895-1.007.633-2.703 2.657-2.703 6.21 0 3.198 2.027 6.217 2.898 7.364l.118.173c3.338 4.873 7.498 8.484 11.713 10.169 4.059 1.621 5.983 1.811 7.075 1.811.46 0 .828-.037 1.15-.069l.207-.02c1.403-.124 4.485-1.722 5.187-3.669.552-1.535.698-3.21.33-3.82-.253-.414-.687-.621-1.236-.885Z" 
  />
</svg>