<svg width="370" height="141" viewBox="0 0 370 141" fill="none" xmlns="http://www.w3.org/2000/svg">
<path d="M164.046 36.0966L164.438 36.9999L207.741 136.973L208.649 139.069H178.447L178.063 138.144L170.757 120.54H130.892L123.585 138.144L123.201 139.069H95.5391L96.4766 136.96L140.909 36.9872L141.305 36.0966H164.046ZM139.975 97.7177H162.817L151.272 70.7158L139.975 97.7177Z" fill="url(#paint0_linear_2042_2)" stroke="#D7E9FF" stroke-width="3"/>
<path d="M199.997 44.4227C201.033 43.4853 202.736 44.2085 202.736 45.6483V105.336C202.736 107.076 200.387 107.623 199.618 106.062L180.282 66.8045C179.979 66.1879 180.091 65.4472 180.563 64.9481L199.898 44.5184L199.997 44.4227Z" fill="url(#paint1_linear_2042_2)" stroke="#D7E9FF" stroke-width="3"/>
<path d="M58.4287 35.2422C66.056 35.2422 72.5031 36.5682 77.6924 39.3115H77.6934C82.9578 42.0432 86.9228 45.9154 89.5312 50.9209L89.7695 51.3789C92.1982 56.1429 93.3916 61.5834 93.3916 67.6621C93.3916 74.3531 91.8604 80.3529 88.7617 85.6172L88.7559 85.6279C87.0804 88.4196 83.7034 90.9775 80.2578 93.0986C77.365 94.8795 74.2538 96.4496 71.6738 97.6787L96.542 136.178L98.0371 138.492H66.6465L66.2139 137.742L45.2852 101.544H28.4248V138.492H1.5V35.2422H58.4287ZM26.4648 81.1895H55.4805C59.5854 81.1894 62.5859 79.9948 64.6943 77.7715C66.8396 75.4135 67.9844 72.1955 67.9844 67.9512C67.9844 65.2454 67.4784 63.045 66.54 61.2891L66.5332 61.2773L66.5264 61.2637C65.5846 59.4178 64.2368 58.0602 62.4609 57.1484C60.665 56.2264 58.3604 55.7256 55.4805 55.7256H26.4648V81.1895Z" fill="url(#paint2_linear_2042_2)" stroke="#D7E9FF" stroke-width="3"/>
<path d="M319.937 36.0966C333.081 36.0966 341.907 37.9178 345.96 38.9296L346.557 39.081C352.69 40.7039 357.851 44.0638 362.011 49.1201L362.413 49.6181C366.507 54.8052 368.5 61.3922 368.5 69.2587C368.5 75.5069 367.283 80.8726 364.761 85.2812C362.292 89.5973 359.12 93.0334 355.24 95.5527L355.236 95.5546C351.484 97.9768 347.625 99.6039 343.662 100.408L343.649 100.411L343.636 100.414C338.392 101.381 330.886 101.851 321.173 101.852H310.643V139.069H284.326V36.0966H319.937ZM311.506 80.5458H319.937C324.147 80.5458 327.548 80.7164 330.044 80.7548C332.651 80.795 334.272 80.6886 335.4 80.2792C338.101 79.299 339.938 78.1786 341.281 76.3212L341.287 76.3124L341.294 76.3036C342.726 74.3813 343.454 72.1433 343.454 69.5283C343.454 66.2848 342.444 63.7123 340.48 61.6894C338.457 59.6047 335.888 58.2839 332.706 57.749L332.695 57.747C330.291 57.3247 325.29 57.0966 317.559 57.0966H311.506V80.5458Z" fill="url(#paint3_linear_2042_2)" stroke="#D7E9FF" stroke-width="3"/>
<path d="M278.026 36.0966V58.9189H231.789V76.1728H272.209V98.1328H230.935V115.816H278.785V139.069H213.364L212.97 138.174L205.846 122.006L205.719 121.717V36.0966H278.026Z" fill="url(#paint4_linear_2042_2)" stroke="#D7E9FF" stroke-width="3"/>
<path d="M185.196 3.73829L207.579 24.7483L185.197 45.3708L162.444 24.7488L185.196 3.73829Z" fill="url(#paint5_linear_2042_2)" stroke="#D7E9FF" stroke-width="3"/>
<path d="M175.744 27.4933L194.329 27.4933L185.037 36.174L175.744 27.4933Z" fill="white" stroke="#D7E9FF" stroke-width="3"/>
<defs>
<linearGradient id="paint0_linear_2042_2" x1="157.233" y1="62.8034" x2="136.726" y2="106.808" gradientUnits="userSpaceOnUse">
<stop stop-color="#0058C4"/>
<stop offset="1" stop-color="#070887"/>
</linearGradient>
<linearGradient id="paint1_linear_2042_2" x1="191.838" y1="85.0196" x2="207.645" y2="52.9771" gradientUnits="userSpaceOnUse">
<stop stop-color="#B41800"/>
<stop offset="1" stop-color="#E01E00"/>
</linearGradient>
<linearGradient id="paint2_linear_2042_2" x1="29.0612" y1="111.508" x2="53.8407" y2="53.8315" gradientUnits="userSpaceOnUse">
<stop stop-color="#07077C"/>
<stop offset="1" stop-color="#0058C4"/>
</linearGradient>
<linearGradient id="paint3_linear_2042_2" x1="326.841" y1="66.6484" x2="300.352" y2="129.879" gradientUnits="userSpaceOnUse">
<stop stop-color="#D96B01"/>
<stop offset="1" stop-color="#B53103"/>
</linearGradient>
<linearGradient id="paint4_linear_2042_2" x1="250.796" y1="63.2306" x2="217.045" y2="129.452" gradientUnits="userSpaceOnUse">
<stop stop-color="#D46800"/>
<stop offset="1" stop-color="#B20D00"/>
</linearGradient>
<linearGradient id="paint5_linear_2042_2" x1="184.575" y1="24.7591" x2="184.575" y2="44.839" gradientUnits="userSpaceOnUse">
<stop stop-color="#070484"/>
<stop offset="0.754808" stop-color="#02011E"/>
</linearGradient>
</defs>
</svg>
