<svg width="143" height="54" viewBox="0 0 143 54" fill="none" xmlns="http://www.w3.org/2000/svg">
<path d="M79.8272 53.0206H69.262L66.2433 45.7472H49.8086L46.79 53.0206H37.231L54.6719 13.7784H62.8292L79.8272 53.0206ZM63.6258 37.9664L58.1961 25.2675L52.8822 37.9664H63.6258Z" fill="url(#paint0_linear_2047_11)"/>
<path d="M70.1682 24.8752L77.565 17.0598C77.6545 16.9651 77.8136 17.0285 77.8136 17.1588V39.9921C77.8136 40.1446 77.6077 40.1926 77.5404 40.0558L70.1436 25.0379C70.117 24.9838 70.1268 24.9189 70.1682 24.8752Z" fill="url(#paint1_linear_2047_11)"/>
<path d="M0 52.7939V13.443H21.7573C24.6891 13.443 27.1194 13.9534 29.0483 14.9743C31.0157 15.9952 32.4816 17.4319 33.446 19.2846C34.4105 21.0995 34.8927 23.198 34.8927 25.5801C34.8927 28.1133 34.314 30.3631 33.1567 32.3292C31.9994 34.2575 28.296 36.0959 26.0972 37.1167L36.2236 52.7939H25.323L16.9379 38.2906H9.39129V52.7939H0ZM8.6219 31.4785H20.6C22.3359 31.4785 23.6861 30.968 24.6505 29.9471C25.615 28.8885 26.0972 27.4706 26.0972 25.6935C26.0972 24.5592 25.885 23.595 25.4606 22.801C25.0363 21.9692 24.4191 21.3453 23.609 20.9294C22.7989 20.5135 21.7959 20.3055 20.6 20.3055H8.6219V31.4785Z" fill="url(#paint2_linear_2047_11)"/>
<path d="M111.018 53.0206V13.7784H124.407C129.514 13.7784 132.931 14.4862 134.482 14.8737C136.866 15.4548 138.861 16.7229 140.469 18.6778C142.077 20.6151 142.881 23.1247 142.881 26.2068C142.881 28.5843 142.418 30.5833 141.491 32.2035C140.564 33.8238 139.382 35.1007 137.944 36.0341C136.525 36.9499 135.078 37.5575 133.603 37.8569C131.598 38.2267 128.694 38.4117 124.892 38.4117H120.17V53.0206H111.018ZM120.509 20.844V31.2261H124.407C127.717 31.2261 129.562 31.4911 130.678 31.0861C131.794 30.681 132.638 30.187 133.262 29.324C133.906 28.4611 134.227 27.4572 134.227 26.3124C134.227 24.9035 133.783 23.7411 132.894 22.8253C132.005 21.9095 130.879 21.3371 129.517 21.1082C128.515 20.9321 126.5 20.844 123.474 20.844H120.509Z" fill="url(#paint3_linear_2047_11)"/>
<path d="M107.367 21.5591H89.2177V29.5096H105.084V36.9517H88.8823V45.0708H107.665V53.0206H82.958L80.1618 46.6741V13.7784H107.367V21.5591Z" fill="url(#paint4_linear_2047_11)"/>
<path d="M62.414 9.37372C62.0379 9.03282 62.0352 8.4427 62.4081 8.09831L70.9294 0.22933C71.2626 -0.0782936 71.7768 -0.0761843 72.1074 0.234162L80.4896 8.10311C80.8556 8.44669 80.8529 9.02874 80.4837 9.3689L72.1017 17.0922C71.7728 17.3953 71.267 17.3974 70.9356 17.097L62.414 9.37372Z" fill="url(#paint5_linear_2047_11)"/>
<path d="M71.5539 13.9339C71.4985 13.9856 71.4126 13.9856 71.3572 13.9339L66.5819 9.47306C66.4863 9.38383 66.5495 9.22373 66.6802 9.22373L76.2309 9.22373C76.3616 9.22373 76.4247 9.38383 76.3292 9.47306L71.5539 13.9339Z" fill="white"/>
<defs>
<linearGradient id="paint0_linear_2047_11" x1="78.1908" y1="13.3684" x2="73.04" y2="40.8081" gradientUnits="userSpaceOnUse">
<stop stop-color="#0058C4"/>
<stop offset="1" stop-color="#070887"/>
</linearGradient>
<linearGradient id="paint1_linear_2047_11" x1="74.5466" y1="34.7247" x2="76.6043" y2="0.027436" gradientUnits="userSpaceOnUse">
<stop stop-color="#B41800"/>
<stop offset="1" stop-color="#E01E00"/>
</linearGradient>
<linearGradient id="paint2_linear_2047_11" x1="40.3507" y1="39.5425" x2="45.5419" y2="4.16962" gradientUnits="userSpaceOnUse">
<stop stop-color="#07077C"/>
<stop offset="1" stop-color="#0058C4"/>
</linearGradient>
<linearGradient id="paint3_linear_2047_11" x1="72.1925" y1="15.4077" x2="67.2949" y2="54.2089" gradientUnits="userSpaceOnUse">
<stop stop-color="#D96B01"/>
<stop offset="1" stop-color="#B53103"/>
</linearGradient>
<linearGradient id="paint4_linear_2047_11" x1="88.865" y1="13.595" x2="83.1016" y2="57.0748" gradientUnits="userSpaceOnUse">
<stop stop-color="#D46800"/>
<stop offset="1" stop-color="#B20D00"/>
</linearGradient>
<linearGradient id="paint5_linear_2047_11" x1="70.2092" y1="26.0536" x2="56.1837" y2="63.8496" gradientUnits="userSpaceOnUse">
<stop stop-color="#070484"/>
<stop offset="0.754808" stop-color="#02011E"/>
</linearGradient>
</defs>
</svg>
